<mxfile host="app.diagrams.net" agent="Mozilla/5.0 (Windows NT 10.0; Win64; x64; rv:138.0) Gecko/20100101 Firefox/138.0" version="26.2.14">
  <diagram name="Página-1" id="PiJOBSAtjGSrL47Rxn38">
    <mxGraphModel dx="872" dy="549" grid="1" gridSize="10" guides="1" tooltips="1" connect="1" arrows="1" fold="1" page="1" pageScale="1" pageWidth="1169" pageHeight="827" math="0" shadow="0">
      <root>
        <mxCell id="0" />
        <mxCell id="1" parent="0" />
        <mxCell id="Hxw2iCBCijCNCAAfh-6b-59" style="edgeStyle=orthogonalEdgeStyle;rounded=0;orthogonalLoop=1;jettySize=auto;html=1;entryX=0.618;entryY=0.991;entryDx=0;entryDy=0;entryPerimeter=0;endArrow=none;startFill=0;shape=link;" parent="1" source="Hxw2iCBCijCNCAAfh-6b-57" target="vP99XLo5LnAxGZVNsOc5-2" edge="1">
          <mxGeometry relative="1" as="geometry">
            <mxPoint x="1220" y="603" as="targetPoint" />
          </mxGeometry>
        </mxCell>
        <mxCell id="VWEWTh3ar_pNMmPOI8s5-85" value="N" style="edgeLabel;html=1;align=center;verticalAlign=middle;resizable=0;points=[];" parent="Hxw2iCBCijCNCAAfh-6b-59" vertex="1" connectable="0">
          <mxGeometry x="-0.8656" relative="1" as="geometry">
            <mxPoint as="offset" />
          </mxGeometry>
        </mxCell>
        <mxCell id="Hxw2iCBCijCNCAAfh-6b-21" style="edgeStyle=orthogonalEdgeStyle;rounded=0;orthogonalLoop=1;jettySize=auto;html=1;entryX=0.5;entryY=0;entryDx=0;entryDy=0;endArrow=none;startFill=0;shape=link;" parent="1" source="vP99XLo5LnAxGZVNsOc5-1" target="Hxw2iCBCijCNCAAfh-6b-17" edge="1">
          <mxGeometry relative="1" as="geometry">
            <mxPoint x="870" y="140" as="targetPoint" />
          </mxGeometry>
        </mxCell>
        <mxCell id="VWEWTh3ar_pNMmPOI8s5-73" value="1" style="edgeLabel;html=1;align=center;verticalAlign=middle;resizable=0;points=[];" parent="Hxw2iCBCijCNCAAfh-6b-21" vertex="1" connectable="0">
          <mxGeometry x="0.5527" relative="1" as="geometry">
            <mxPoint as="offset" />
          </mxGeometry>
        </mxCell>
        <mxCell id="vP99XLo5LnAxGZVNsOc5-1" value="&lt;div&gt;Endereço&lt;/div&gt;" style="whiteSpace=wrap;html=1;align=center;" parent="1" vertex="1">
          <mxGeometry x="635" y="120" width="100" height="40" as="geometry" />
        </mxCell>
        <mxCell id="Hxw2iCBCijCNCAAfh-6b-34" style="edgeStyle=orthogonalEdgeStyle;rounded=0;orthogonalLoop=1;jettySize=auto;html=1;entryX=0.5;entryY=0;entryDx=0;entryDy=0;endArrow=none;startFill=0;shape=link;" parent="1" source="vP99XLo5LnAxGZVNsOc5-2" target="Hxw2iCBCijCNCAAfh-6b-9" edge="1">
          <mxGeometry relative="1" as="geometry">
            <mxPoint x="1210.0000000000002" y="470" as="targetPoint" />
            <Array as="points" />
          </mxGeometry>
        </mxCell>
        <mxCell id="VWEWTh3ar_pNMmPOI8s5-84" value="1" style="edgeLabel;html=1;align=center;verticalAlign=middle;resizable=0;points=[];" parent="Hxw2iCBCijCNCAAfh-6b-34" vertex="1" connectable="0">
          <mxGeometry x="0.5218" relative="1" as="geometry">
            <mxPoint as="offset" />
          </mxGeometry>
        </mxCell>
        <mxCell id="vP99XLo5LnAxGZVNsOc5-2" value="Funcionário" style="whiteSpace=wrap;html=1;align=center;" parent="1" vertex="1">
          <mxGeometry x="1160" y="330" width="100" height="40" as="geometry" />
        </mxCell>
        <mxCell id="vP99XLo5LnAxGZVNsOc5-3" value="Projeto" style="whiteSpace=wrap;html=1;align=center;" parent="1" vertex="1">
          <mxGeometry x="463" y="330" width="100" height="40" as="geometry" />
        </mxCell>
        <mxCell id="Hxw2iCBCijCNCAAfh-6b-37" style="edgeStyle=orthogonalEdgeStyle;rounded=0;orthogonalLoop=1;jettySize=auto;html=1;entryX=0;entryY=0.5;entryDx=0;entryDy=0;endArrow=none;startFill=0;" parent="1" source="vP99XLo5LnAxGZVNsOc5-4" target="Hxw2iCBCijCNCAAfh-6b-35" edge="1">
          <mxGeometry relative="1" as="geometry" />
        </mxCell>
        <mxCell id="vP99XLo5LnAxGZVNsOc5-4" value="Cliente" style="whiteSpace=wrap;html=1;align=center;" parent="1" vertex="1">
          <mxGeometry x="760" y="330" width="100" height="40" as="geometry" />
        </mxCell>
        <mxCell id="vP99XLo5LnAxGZVNsOc5-5" value="Logadouro" style="ellipse;whiteSpace=wrap;html=1;align=center;fontStyle=4" parent="1" vertex="1">
          <mxGeometry x="595" y="60" width="40" height="40" as="geometry" />
        </mxCell>
        <mxCell id="vP99XLo5LnAxGZVNsOc5-6" value="CEP" style="ellipse;whiteSpace=wrap;html=1;align=center;fontStyle=4" parent="1" vertex="1">
          <mxGeometry x="665" y="60" width="40" height="40" as="geometry" />
        </mxCell>
        <mxCell id="vP99XLo5LnAxGZVNsOc5-8" value="Bairro" style="ellipse;whiteSpace=wrap;html=1;align=center;" parent="1" vertex="1">
          <mxGeometry x="735" y="60" width="40" height="40" as="geometry" />
        </mxCell>
        <mxCell id="vP99XLo5LnAxGZVNsOc5-9" value="Nº" style="ellipse;whiteSpace=wrap;html=1;align=center;fontStyle=4" parent="1" vertex="1">
          <mxGeometry x="635" y="170" width="40" height="40" as="geometry" />
        </mxCell>
        <mxCell id="vP99XLo5LnAxGZVNsOc5-10" value="&lt;div&gt;Cidade&lt;/div&gt;" style="ellipse;whiteSpace=wrap;html=1;align=center;" parent="1" vertex="1">
          <mxGeometry x="695" y="170" width="40" height="40" as="geometry" />
        </mxCell>
        <mxCell id="vP99XLo5LnAxGZVNsOc5-11" value="ID" style="ellipse;whiteSpace=wrap;html=1;align=center;fontStyle=4" parent="1" vertex="1">
          <mxGeometry x="460" y="280" width="40" height="40" as="geometry" />
        </mxCell>
        <mxCell id="vP99XLo5LnAxGZVNsOc5-13" value="&lt;div&gt;Data&lt;/div&gt;&lt;div&gt;de&lt;/div&gt;&lt;div&gt;início&lt;/div&gt;" style="ellipse;whiteSpace=wrap;html=1;align=center;fontStyle=4" parent="1" vertex="1">
          <mxGeometry x="524" y="280" width="40" height="40" as="geometry" />
        </mxCell>
        <mxCell id="vP99XLo5LnAxGZVNsOc5-17" value="CPF" style="ellipse;whiteSpace=wrap;html=1;align=center;fontStyle=0" parent="1" vertex="1">
          <mxGeometry x="1220" y="280" width="40" height="40" as="geometry" />
        </mxCell>
        <mxCell id="vP99XLo5LnAxGZVNsOc5-19" value="Nome" style="ellipse;whiteSpace=wrap;html=1;align=center;" parent="1" vertex="1">
          <mxGeometry x="1230" y="380" width="40" height="40" as="geometry" />
        </mxCell>
        <mxCell id="vP99XLo5LnAxGZVNsOc5-20" value="ID" style="ellipse;whiteSpace=wrap;html=1;align=center;fontStyle=4" parent="1" vertex="1">
          <mxGeometry x="1160" y="280" width="40" height="40" as="geometry" />
        </mxCell>
        <mxCell id="vP99XLo5LnAxGZVNsOc5-25" value="ID" style="ellipse;whiteSpace=wrap;html=1;align=center;fontStyle=4" parent="1" vertex="1">
          <mxGeometry x="760" y="280" width="40" height="40" as="geometry" />
        </mxCell>
        <mxCell id="vP99XLo5LnAxGZVNsOc5-27" value="CNPJ" style="ellipse;whiteSpace=wrap;html=1;align=center;fontStyle=4" parent="1" vertex="1">
          <mxGeometry x="1030" y="287" width="40" height="40" as="geometry" />
        </mxCell>
        <mxCell id="vP99XLo5LnAxGZVNsOc5-29" value="CPF" style="ellipse;whiteSpace=wrap;html=1;align=center;fontStyle=0" parent="1" vertex="1">
          <mxGeometry x="820" y="280" width="40" height="40" as="geometry" />
        </mxCell>
        <mxCell id="vP99XLo5LnAxGZVNsOc5-30" value="&lt;div&gt;Data &lt;br&gt;&lt;/div&gt;&lt;div&gt;de&lt;/div&gt;&lt;div&gt;Contato&lt;/div&gt;" style="ellipse;whiteSpace=wrap;html=1;align=center;" parent="1" vertex="1">
          <mxGeometry x="760" y="380" width="40" height="40" as="geometry" />
        </mxCell>
        <mxCell id="Hxw2iCBCijCNCAAfh-6b-58" style="edgeStyle=orthogonalEdgeStyle;rounded=0;orthogonalLoop=1;jettySize=auto;html=1;entryX=0.5;entryY=0;entryDx=0;entryDy=0;endArrow=none;startFill=0;" parent="1" source="vP99XLo5LnAxGZVNsOc5-32" target="Hxw2iCBCijCNCAAfh-6b-57" edge="1">
          <mxGeometry relative="1" as="geometry">
            <Array as="points">
              <mxPoint x="660" y="540" />
            </Array>
          </mxGeometry>
        </mxCell>
        <mxCell id="VWEWTh3ar_pNMmPOI8s5-86" value="1" style="edgeLabel;html=1;align=center;verticalAlign=middle;resizable=0;points=[];" parent="Hxw2iCBCijCNCAAfh-6b-58" vertex="1" connectable="0">
          <mxGeometry x="-0.0794" y="1" relative="1" as="geometry">
            <mxPoint as="offset" />
          </mxGeometry>
        </mxCell>
        <mxCell id="vP99XLo5LnAxGZVNsOc5-32" value="Equipe" style="whiteSpace=wrap;html=1;align=center;" parent="1" vertex="1">
          <mxGeometry x="440" y="520" width="100" height="40" as="geometry" />
        </mxCell>
        <mxCell id="vP99XLo5LnAxGZVNsOc5-41" value="&lt;div&gt;Data&lt;/div&gt;&lt;div&gt;de&lt;/div&gt;&lt;div&gt;início&lt;/div&gt;" style="ellipse;whiteSpace=wrap;html=1;align=center;" parent="1" vertex="1">
          <mxGeometry x="524" y="380" width="40" height="40" as="geometry" />
        </mxCell>
        <mxCell id="vP99XLo5LnAxGZVNsOc5-43" value="&lt;div&gt;Equipamento&lt;/div&gt;" style="whiteSpace=wrap;html=1;align=center;" parent="1" vertex="1">
          <mxGeometry x="440" y="650" width="100" height="40" as="geometry" />
        </mxCell>
        <mxCell id="vP99XLo5LnAxGZVNsOc5-44" value="ID" style="ellipse;whiteSpace=wrap;html=1;align=center;fontStyle=4" parent="1" vertex="1">
          <mxGeometry x="440" y="700" width="40" height="40" as="geometry" />
        </mxCell>
        <mxCell id="vP99XLo5LnAxGZVNsOc5-45" value="Manutenção" style="whiteSpace=wrap;html=1;align=center;" parent="1" vertex="1">
          <mxGeometry x="230" y="650" width="100" height="40" as="geometry" />
        </mxCell>
        <mxCell id="Hxw2iCBCijCNCAAfh-6b-1" value="Tempo de Empresa" style="ellipse;whiteSpace=wrap;html=1;align=center;" parent="1" vertex="1">
          <mxGeometry x="1150" y="380" width="40" height="40" as="geometry" />
        </mxCell>
        <mxCell id="Hxw2iCBCijCNCAAfh-6b-2" value="Telefone" style="whiteSpace=wrap;html=1;align=center;" parent="1" vertex="1">
          <mxGeometry x="920" y="504" width="100" height="40" as="geometry" />
        </mxCell>
        <mxCell id="Hxw2iCBCijCNCAAfh-6b-3" value="DDD" style="ellipse;whiteSpace=wrap;html=1;align=center;fontStyle=4" parent="1" vertex="1">
          <mxGeometry x="920" y="450" width="40" height="40" as="geometry" />
        </mxCell>
        <mxCell id="Hxw2iCBCijCNCAAfh-6b-5" value="Número" style="ellipse;whiteSpace=wrap;html=1;align=center;fontStyle=4" parent="1" vertex="1">
          <mxGeometry x="980" y="450" width="40" height="40" as="geometry" />
        </mxCell>
        <mxCell id="Hxw2iCBCijCNCAAfh-6b-8" value="R6" style="shape=rhombus;perimeter=rhombusPerimeter;whiteSpace=wrap;html=1;align=center;" parent="1" vertex="1">
          <mxGeometry x="785" y="444" width="50" height="46" as="geometry" />
        </mxCell>
        <mxCell id="Hxw2iCBCijCNCAAfh-6b-9" value="R7" style="shape=rhombus;perimeter=rhombusPerimeter;whiteSpace=wrap;html=1;align=center;" parent="1" vertex="1">
          <mxGeometry x="1185" y="444" width="50" height="46" as="geometry" />
        </mxCell>
        <mxCell id="Hxw2iCBCijCNCAAfh-6b-11" value="" style="endArrow=none;html=1;rounded=0;entryX=0;entryY=0.5;entryDx=0;entryDy=0;exitX=0.5;exitY=1;exitDx=0;exitDy=0;shape=link;" parent="1" source="Hxw2iCBCijCNCAAfh-6b-8" target="Hxw2iCBCijCNCAAfh-6b-2" edge="1">
          <mxGeometry relative="1" as="geometry">
            <mxPoint x="870" y="470" as="sourcePoint" />
            <mxPoint x="1030" y="470" as="targetPoint" />
            <Array as="points">
              <mxPoint x="810" y="524" />
              <mxPoint x="860" y="524" />
            </Array>
          </mxGeometry>
        </mxCell>
        <mxCell id="VWEWTh3ar_pNMmPOI8s5-82" value="1" style="edgeLabel;html=1;align=center;verticalAlign=middle;resizable=0;points=[];" parent="Hxw2iCBCijCNCAAfh-6b-11" vertex="1" connectable="0">
          <mxGeometry x="-0.8056" relative="1" as="geometry">
            <mxPoint as="offset" />
          </mxGeometry>
        </mxCell>
        <mxCell id="Hxw2iCBCijCNCAAfh-6b-12" value="" style="endArrow=none;html=1;rounded=0;entryX=1;entryY=0.5;entryDx=0;entryDy=0;exitX=0.5;exitY=1;exitDx=0;exitDy=0;shape=link;" parent="1" source="Hxw2iCBCijCNCAAfh-6b-9" target="Hxw2iCBCijCNCAAfh-6b-2" edge="1">
          <mxGeometry relative="1" as="geometry">
            <mxPoint x="870" y="500" as="sourcePoint" />
            <mxPoint x="930" y="534" as="targetPoint" />
            <Array as="points">
              <mxPoint x="1210" y="524" />
              <mxPoint x="1090" y="524" />
            </Array>
          </mxGeometry>
        </mxCell>
        <mxCell id="VWEWTh3ar_pNMmPOI8s5-83" value="1" style="edgeLabel;html=1;align=center;verticalAlign=middle;resizable=0;points=[];" parent="Hxw2iCBCijCNCAAfh-6b-12" vertex="1" connectable="0">
          <mxGeometry x="-0.875" relative="1" as="geometry">
            <mxPoint as="offset" />
          </mxGeometry>
        </mxCell>
        <mxCell id="Hxw2iCBCijCNCAAfh-6b-13" value="" style="endArrow=none;html=1;rounded=0;exitX=0.5;exitY=1;exitDx=0;exitDy=0;entryX=0.5;entryY=0;entryDx=0;entryDy=0;shape=link;" parent="1" source="vP99XLo5LnAxGZVNsOc5-4" target="Hxw2iCBCijCNCAAfh-6b-8" edge="1">
          <mxGeometry relative="1" as="geometry">
            <mxPoint x="870" y="470" as="sourcePoint" />
            <mxPoint x="1030" y="470" as="targetPoint" />
          </mxGeometry>
        </mxCell>
        <mxCell id="VWEWTh3ar_pNMmPOI8s5-81" value="1" style="edgeLabel;html=1;align=center;verticalAlign=middle;resizable=0;points=[];" parent="Hxw2iCBCijCNCAAfh-6b-13" vertex="1" connectable="0">
          <mxGeometry x="0.3754" relative="1" as="geometry">
            <mxPoint as="offset" />
          </mxGeometry>
        </mxCell>
        <mxCell id="Hxw2iCBCijCNCAAfh-6b-25" style="edgeStyle=orthogonalEdgeStyle;rounded=0;orthogonalLoop=1;jettySize=auto;html=1;entryX=0;entryY=0.5;entryDx=0;entryDy=0;endArrow=none;startFill=0;shape=link;" parent="1" source="Hxw2iCBCijCNCAAfh-6b-15" target="vP99XLo5LnAxGZVNsOc5-1" edge="1">
          <mxGeometry relative="1" as="geometry">
            <mxPoint x="513" y="130" as="targetPoint" />
            <Array as="points">
              <mxPoint x="513" y="140" />
            </Array>
          </mxGeometry>
        </mxCell>
        <mxCell id="VWEWTh3ar_pNMmPOI8s5-70" value="N" style="edgeLabel;html=1;align=center;verticalAlign=middle;resizable=0;points=[];" parent="Hxw2iCBCijCNCAAfh-6b-25" vertex="1" connectable="0">
          <mxGeometry x="-0.6645" relative="1" as="geometry">
            <mxPoint as="offset" />
          </mxGeometry>
        </mxCell>
        <mxCell id="Hxw2iCBCijCNCAAfh-6b-28" style="edgeStyle=orthogonalEdgeStyle;rounded=0;orthogonalLoop=1;jettySize=auto;html=1;entryX=0.5;entryY=0;entryDx=0;entryDy=0;endArrow=none;startFill=0;shape=link;" parent="1" source="Hxw2iCBCijCNCAAfh-6b-15" target="vP99XLo5LnAxGZVNsOc5-3" edge="1">
          <mxGeometry relative="1" as="geometry" />
        </mxCell>
        <mxCell id="VWEWTh3ar_pNMmPOI8s5-71" value="N" style="edgeLabel;html=1;align=center;verticalAlign=middle;resizable=0;points=[];" parent="Hxw2iCBCijCNCAAfh-6b-28" vertex="1" connectable="0">
          <mxGeometry x="-0.1458" relative="1" as="geometry">
            <mxPoint as="offset" />
          </mxGeometry>
        </mxCell>
        <mxCell id="Hxw2iCBCijCNCAAfh-6b-15" value="&lt;div&gt;R1&lt;/div&gt;" style="shape=rhombus;perimeter=rhombusPerimeter;whiteSpace=wrap;html=1;align=center;" parent="1" vertex="1">
          <mxGeometry x="488" y="220" width="50" height="46" as="geometry" />
        </mxCell>
        <mxCell id="Hxw2iCBCijCNCAAfh-6b-26" style="edgeStyle=orthogonalEdgeStyle;rounded=0;orthogonalLoop=1;jettySize=auto;html=1;entryX=0.5;entryY=0;entryDx=0;entryDy=0;endArrow=none;startFill=0;shape=link;" parent="1" source="Hxw2iCBCijCNCAAfh-6b-17" target="vP99XLo5LnAxGZVNsOc5-4" edge="1">
          <mxGeometry relative="1" as="geometry">
            <Array as="points">
              <mxPoint x="810" y="260" />
              <mxPoint x="810" y="260" />
            </Array>
          </mxGeometry>
        </mxCell>
        <mxCell id="VWEWTh3ar_pNMmPOI8s5-74" value="N" style="edgeLabel;html=1;align=center;verticalAlign=middle;resizable=0;points=[];" parent="Hxw2iCBCijCNCAAfh-6b-26" vertex="1" connectable="0">
          <mxGeometry x="-0.0312" y="1" relative="1" as="geometry">
            <mxPoint as="offset" />
          </mxGeometry>
        </mxCell>
        <mxCell id="Hxw2iCBCijCNCAAfh-6b-17" value="&lt;div&gt;R2&lt;/div&gt;" style="shape=rhombus;perimeter=rhombusPerimeter;whiteSpace=wrap;html=1;align=center;" parent="1" vertex="1">
          <mxGeometry x="785" y="220" width="50" height="46" as="geometry" />
        </mxCell>
        <mxCell id="Hxw2iCBCijCNCAAfh-6b-24" style="edgeStyle=orthogonalEdgeStyle;rounded=0;orthogonalLoop=1;jettySize=auto;html=1;entryX=1;entryY=0.25;entryDx=0;entryDy=0;endArrow=none;startFill=0;shape=link;" parent="1" source="Hxw2iCBCijCNCAAfh-6b-19" target="vP99XLo5LnAxGZVNsOc5-1" edge="1">
          <mxGeometry relative="1" as="geometry">
            <mxPoint x="960" y="130" as="targetPoint" />
            <Array as="points">
              <mxPoint x="1210" y="130" />
            </Array>
          </mxGeometry>
        </mxCell>
        <mxCell id="VWEWTh3ar_pNMmPOI8s5-78" value="1" style="edgeLabel;html=1;align=center;verticalAlign=middle;resizable=0;points=[];" parent="Hxw2iCBCijCNCAAfh-6b-24" vertex="1" connectable="0">
          <mxGeometry x="-0.8928" relative="1" as="geometry">
            <mxPoint as="offset" />
          </mxGeometry>
        </mxCell>
        <mxCell id="Hxw2iCBCijCNCAAfh-6b-27" style="edgeStyle=orthogonalEdgeStyle;rounded=0;orthogonalLoop=1;jettySize=auto;html=1;entryX=0.5;entryY=0;entryDx=0;entryDy=0;endArrow=none;startFill=0;shape=link;" parent="1" source="Hxw2iCBCijCNCAAfh-6b-19" target="vP99XLo5LnAxGZVNsOc5-2" edge="1">
          <mxGeometry relative="1" as="geometry" />
        </mxCell>
        <mxCell id="VWEWTh3ar_pNMmPOI8s5-75" value="N" style="edgeLabel;html=1;align=center;verticalAlign=middle;resizable=0;points=[];" parent="Hxw2iCBCijCNCAAfh-6b-27" vertex="1" connectable="0">
          <mxGeometry x="0.0208" relative="1" as="geometry">
            <mxPoint as="offset" />
          </mxGeometry>
        </mxCell>
        <mxCell id="Hxw2iCBCijCNCAAfh-6b-19" value="R3" style="shape=rhombus;perimeter=rhombusPerimeter;whiteSpace=wrap;html=1;align=center;" parent="1" vertex="1">
          <mxGeometry x="1185" y="220" width="50" height="46" as="geometry" />
        </mxCell>
        <mxCell id="Hxw2iCBCijCNCAAfh-6b-32" style="edgeStyle=orthogonalEdgeStyle;rounded=0;orthogonalLoop=1;jettySize=auto;html=1;entryX=0;entryY=0.5;entryDx=0;entryDy=0;endArrow=none;startFill=0;shape=link;" parent="1" source="Hxw2iCBCijCNCAAfh-6b-29" target="vP99XLo5LnAxGZVNsOc5-4" edge="1">
          <mxGeometry relative="1" as="geometry" />
        </mxCell>
        <mxCell id="VWEWTh3ar_pNMmPOI8s5-98" value="1" style="edgeLabel;html=1;align=center;verticalAlign=middle;resizable=0;points=[];" parent="Hxw2iCBCijCNCAAfh-6b-32" vertex="1" connectable="0">
          <mxGeometry x="0.0347" relative="1" as="geometry">
            <mxPoint as="offset" />
          </mxGeometry>
        </mxCell>
        <mxCell id="Hxw2iCBCijCNCAAfh-6b-33" style="edgeStyle=orthogonalEdgeStyle;rounded=0;orthogonalLoop=1;jettySize=auto;html=1;entryX=1;entryY=0.5;entryDx=0;entryDy=0;endArrow=none;startFill=0;shape=link;" parent="1" source="Hxw2iCBCijCNCAAfh-6b-29" target="vP99XLo5LnAxGZVNsOc5-3" edge="1">
          <mxGeometry relative="1" as="geometry" />
        </mxCell>
        <mxCell id="VWEWTh3ar_pNMmPOI8s5-99" value="N" style="edgeLabel;html=1;align=center;verticalAlign=middle;resizable=0;points=[];" parent="Hxw2iCBCijCNCAAfh-6b-33" vertex="1" connectable="0">
          <mxGeometry x="0.0889" relative="1" as="geometry">
            <mxPoint as="offset" />
          </mxGeometry>
        </mxCell>
        <mxCell id="Hxw2iCBCijCNCAAfh-6b-29" value="R4" style="shape=rhombus;perimeter=rhombusPerimeter;whiteSpace=wrap;html=1;align=center;" parent="1" vertex="1">
          <mxGeometry x="635" y="327" width="50" height="46" as="geometry" />
        </mxCell>
        <mxCell id="Hxw2iCBCijCNCAAfh-6b-41" style="edgeStyle=orthogonalEdgeStyle;rounded=0;orthogonalLoop=1;jettySize=auto;html=1;entryX=0;entryY=0.5;entryDx=0;entryDy=0;endArrow=none;startFill=0;" parent="1" source="Hxw2iCBCijCNCAAfh-6b-35" target="Hxw2iCBCijCNCAAfh-6b-39" edge="1">
          <mxGeometry relative="1" as="geometry" />
        </mxCell>
        <mxCell id="Hxw2iCBCijCNCAAfh-6b-42" style="edgeStyle=orthogonalEdgeStyle;rounded=0;orthogonalLoop=1;jettySize=auto;html=1;entryX=0;entryY=0.5;entryDx=0;entryDy=0;endArrow=none;startFill=0;" parent="1" source="Hxw2iCBCijCNCAAfh-6b-35" target="Hxw2iCBCijCNCAAfh-6b-38" edge="1">
          <mxGeometry relative="1" as="geometry" />
        </mxCell>
        <mxCell id="Hxw2iCBCijCNCAAfh-6b-35" value="" style="triangle;whiteSpace=wrap;html=1;" parent="1" vertex="1">
          <mxGeometry x="880" y="330" width="40" height="40" as="geometry" />
        </mxCell>
        <mxCell id="Hxw2iCBCijCNCAAfh-6b-38" value="Jurídico" style="whiteSpace=wrap;html=1;align=center;" parent="1" vertex="1">
          <mxGeometry x="920" y="287" width="100" height="40" as="geometry" />
        </mxCell>
        <mxCell id="Hxw2iCBCijCNCAAfh-6b-39" value="Físico" style="whiteSpace=wrap;html=1;align=center;" parent="1" vertex="1">
          <mxGeometry x="920" y="370" width="100" height="40" as="geometry" />
        </mxCell>
        <mxCell id="Hxw2iCBCijCNCAAfh-6b-40" value="Nome" style="ellipse;whiteSpace=wrap;html=1;align=center;" parent="1" vertex="1">
          <mxGeometry x="820" y="380" width="40" height="40" as="geometry" />
        </mxCell>
        <mxCell id="VWEWTh3ar_pNMmPOI8s5-18" style="edgeStyle=orthogonalEdgeStyle;rounded=0;orthogonalLoop=1;jettySize=auto;html=1;exitX=0;exitY=0.5;exitDx=0;exitDy=0;entryX=1;entryY=0.5;entryDx=0;entryDy=0;endArrow=none;startFill=0;" parent="1" source="Hxw2iCBCijCNCAAfh-6b-43" target="Hxw2iCBCijCNCAAfh-6b-39" edge="1">
          <mxGeometry relative="1" as="geometry" />
        </mxCell>
        <mxCell id="Hxw2iCBCijCNCAAfh-6b-43" value="RG" style="ellipse;whiteSpace=wrap;html=1;align=center;fontStyle=4" parent="1" vertex="1">
          <mxGeometry x="1030" y="370" width="40" height="40" as="geometry" />
        </mxCell>
        <mxCell id="Hxw2iCBCijCNCAAfh-6b-45" value="Razão Social" style="ellipse;whiteSpace=wrap;html=1;align=center;fontStyle=0" parent="1" vertex="1">
          <mxGeometry x="950" y="240" width="40" height="40" as="geometry" />
        </mxCell>
        <mxCell id="Hxw2iCBCijCNCAAfh-6b-46" value="Serviço" style="whiteSpace=wrap;html=1;align=center;" parent="1" vertex="1">
          <mxGeometry x="220" y="330" width="100" height="40" as="geometry" />
        </mxCell>
        <mxCell id="Hxw2iCBCijCNCAAfh-6b-47" value="ID" style="ellipse;whiteSpace=wrap;html=1;align=center;fontStyle=4" parent="1" vertex="1">
          <mxGeometry x="217" y="280" width="40" height="40" as="geometry" />
        </mxCell>
        <mxCell id="Hxw2iCBCijCNCAAfh-6b-48" value="Tipo" style="ellipse;whiteSpace=wrap;html=1;align=center;fontStyle=4" parent="1" vertex="1">
          <mxGeometry x="281" y="280" width="40" height="40" as="geometry" />
        </mxCell>
        <mxCell id="Hxw2iCBCijCNCAAfh-6b-49" value="Descrição" style="ellipse;whiteSpace=wrap;html=1;align=center;" parent="1" vertex="1">
          <mxGeometry x="220" y="380" width="40" height="40" as="geometry" />
        </mxCell>
        <mxCell id="Hxw2iCBCijCNCAAfh-6b-50" value="Status" style="ellipse;whiteSpace=wrap;html=1;align=center;" parent="1" vertex="1">
          <mxGeometry x="281" y="380" width="40" height="40" as="geometry" />
        </mxCell>
        <mxCell id="Hxw2iCBCijCNCAAfh-6b-51" value="Status" style="ellipse;whiteSpace=wrap;html=1;align=center;fontStyle=0" parent="1" vertex="1">
          <mxGeometry x="460" y="380" width="40" height="40" as="geometry" />
        </mxCell>
        <mxCell id="Hxw2iCBCijCNCAAfh-6b-53" value="" style="edgeStyle=orthogonalEdgeStyle;rounded=0;orthogonalLoop=1;jettySize=auto;html=1;entryX=0;entryY=0.5;entryDx=0;entryDy=0;endArrow=none;startFill=0;shape=link;" parent="1" source="Hxw2iCBCijCNCAAfh-6b-52" target="vP99XLo5LnAxGZVNsOc5-3" edge="1">
          <mxGeometry relative="1" as="geometry" />
        </mxCell>
        <mxCell id="VWEWTh3ar_pNMmPOI8s5-106" value="1" style="edgeLabel;html=1;align=center;verticalAlign=middle;resizable=0;points=[];" parent="Hxw2iCBCijCNCAAfh-6b-53" vertex="1" connectable="0">
          <mxGeometry x="0.0439" relative="1" as="geometry">
            <mxPoint as="offset" />
          </mxGeometry>
        </mxCell>
        <mxCell id="Hxw2iCBCijCNCAAfh-6b-54" style="edgeStyle=orthogonalEdgeStyle;rounded=0;orthogonalLoop=1;jettySize=auto;html=1;entryX=1;entryY=0.5;entryDx=0;entryDy=0;endArrow=none;startFill=0;shape=link;" parent="1" source="Hxw2iCBCijCNCAAfh-6b-52" target="Hxw2iCBCijCNCAAfh-6b-46" edge="1">
          <mxGeometry relative="1" as="geometry" />
        </mxCell>
        <mxCell id="VWEWTh3ar_pNMmPOI8s5-100" value="N" style="edgeLabel;html=1;align=center;verticalAlign=middle;resizable=0;points=[];" parent="Hxw2iCBCijCNCAAfh-6b-54" vertex="1" connectable="0">
          <mxGeometry x="0.0133" relative="1" as="geometry">
            <mxPoint as="offset" />
          </mxGeometry>
        </mxCell>
        <mxCell id="Hxw2iCBCijCNCAAfh-6b-52" value="R5" style="shape=rhombus;perimeter=rhombusPerimeter;whiteSpace=wrap;html=1;align=center;" parent="1" vertex="1">
          <mxGeometry x="370" y="327" width="50" height="46" as="geometry" />
        </mxCell>
        <mxCell id="Hxw2iCBCijCNCAAfh-6b-55" value="Data de Início" style="ellipse;whiteSpace=wrap;html=1;align=center;fontStyle=0" parent="1" vertex="1">
          <mxGeometry x="160" y="280" width="40" height="40" as="geometry" />
        </mxCell>
        <mxCell id="Hxw2iCBCijCNCAAfh-6b-56" value="Data de término" style="ellipse;whiteSpace=wrap;html=1;align=center;fontStyle=0" parent="1" vertex="1">
          <mxGeometry x="160" y="380" width="40" height="40" as="geometry" />
        </mxCell>
        <mxCell id="Hxw2iCBCijCNCAAfh-6b-57" value="R9" style="shape=rhombus;perimeter=rhombusPerimeter;whiteSpace=wrap;html=1;align=center;" parent="1" vertex="1">
          <mxGeometry x="635" y="544" width="50" height="46" as="geometry" />
        </mxCell>
        <mxCell id="Hxw2iCBCijCNCAAfh-6b-66" style="edgeStyle=orthogonalEdgeStyle;rounded=0;orthogonalLoop=1;jettySize=auto;html=1;entryX=0;entryY=0.5;entryDx=0;entryDy=0;endArrow=none;startFill=0;shape=link;" parent="1" source="Hxw2iCBCijCNCAAfh-6b-60" target="vP99XLo5LnAxGZVNsOc5-32" edge="1">
          <mxGeometry relative="1" as="geometry" />
        </mxCell>
        <mxCell id="VWEWTh3ar_pNMmPOI8s5-103" value="N" style="edgeLabel;html=1;align=center;verticalAlign=middle;resizable=0;points=[];" parent="Hxw2iCBCijCNCAAfh-6b-66" vertex="1" connectable="0">
          <mxGeometry x="-0.0014" relative="1" as="geometry">
            <mxPoint as="offset" />
          </mxGeometry>
        </mxCell>
        <mxCell id="Hxw2iCBCijCNCAAfh-6b-67" style="edgeStyle=orthogonalEdgeStyle;rounded=0;orthogonalLoop=1;jettySize=auto;html=1;entryX=0.5;entryY=1;entryDx=0;entryDy=0;endArrow=none;startFill=0;shape=link;" parent="1" source="Hxw2iCBCijCNCAAfh-6b-60" target="Hxw2iCBCijCNCAAfh-6b-46" edge="1">
          <mxGeometry relative="1" as="geometry" />
        </mxCell>
        <mxCell id="VWEWTh3ar_pNMmPOI8s5-102" value="N" style="edgeLabel;html=1;align=center;verticalAlign=middle;resizable=0;points=[];" parent="Hxw2iCBCijCNCAAfh-6b-67" vertex="1" connectable="0">
          <mxGeometry x="0.0476" relative="1" as="geometry">
            <mxPoint as="offset" />
          </mxGeometry>
        </mxCell>
        <mxCell id="Hxw2iCBCijCNCAAfh-6b-60" value="R8" style="shape=rhombus;perimeter=rhombusPerimeter;whiteSpace=wrap;html=1;align=center;" parent="1" vertex="1">
          <mxGeometry x="245" y="517" width="50" height="46" as="geometry" />
        </mxCell>
        <mxCell id="Hxw2iCBCijCNCAAfh-6b-64" value="ID" style="ellipse;whiteSpace=wrap;html=1;align=center;fontStyle=4" parent="1" vertex="1">
          <mxGeometry x="440" y="470" width="40" height="40" as="geometry" />
        </mxCell>
        <mxCell id="Hxw2iCBCijCNCAAfh-6b-79" value="Data de Início" style="ellipse;whiteSpace=wrap;html=1;align=center;fontStyle=4" parent="1" vertex="1">
          <mxGeometry x="230" y="600" width="40" height="40" as="geometry" />
        </mxCell>
        <mxCell id="Hxw2iCBCijCNCAAfh-6b-81" value="Data de término" style="ellipse;whiteSpace=wrap;html=1;align=center;" parent="1" vertex="1">
          <mxGeometry x="295" y="600" width="40" height="40" as="geometry" />
        </mxCell>
        <mxCell id="Hxw2iCBCijCNCAAfh-6b-83" style="edgeStyle=orthogonalEdgeStyle;rounded=0;orthogonalLoop=1;jettySize=auto;html=1;entryX=1;entryY=0.5;entryDx=0;entryDy=0;endArrow=none;startFill=0;shape=link;" parent="1" source="Hxw2iCBCijCNCAAfh-6b-82" target="vP99XLo5LnAxGZVNsOc5-45" edge="1">
          <mxGeometry relative="1" as="geometry" />
        </mxCell>
        <mxCell id="VWEWTh3ar_pNMmPOI8s5-93" value="N" style="edgeLabel;html=1;align=center;verticalAlign=middle;resizable=0;points=[];" parent="Hxw2iCBCijCNCAAfh-6b-83" vertex="1" connectable="0">
          <mxGeometry x="0.42" relative="1" as="geometry">
            <mxPoint as="offset" />
          </mxGeometry>
        </mxCell>
        <mxCell id="Hxw2iCBCijCNCAAfh-6b-84" style="edgeStyle=orthogonalEdgeStyle;rounded=0;orthogonalLoop=1;jettySize=auto;html=1;entryX=0;entryY=0.5;entryDx=0;entryDy=0;endArrow=none;startFill=0;" parent="1" source="Hxw2iCBCijCNCAAfh-6b-82" target="vP99XLo5LnAxGZVNsOc5-43" edge="1">
          <mxGeometry relative="1" as="geometry" />
        </mxCell>
        <mxCell id="VWEWTh3ar_pNMmPOI8s5-95" value="N" style="edgeLabel;html=1;align=center;verticalAlign=middle;resizable=0;points=[];" parent="Hxw2iCBCijCNCAAfh-6b-84" vertex="1" connectable="0">
          <mxGeometry x="0.4038" relative="1" as="geometry">
            <mxPoint as="offset" />
          </mxGeometry>
        </mxCell>
        <mxCell id="Hxw2iCBCijCNCAAfh-6b-82" value="R11" style="shape=rhombus;perimeter=rhombusPerimeter;whiteSpace=wrap;html=1;align=center;" parent="1" vertex="1">
          <mxGeometry x="360" y="647" width="50" height="46" as="geometry" />
        </mxCell>
        <mxCell id="Hxw2iCBCijCNCAAfh-6b-85" value="Documento" style="whiteSpace=wrap;html=1;align=center;" parent="1" vertex="1">
          <mxGeometry x="53" y="100" width="100" height="40" as="geometry" />
        </mxCell>
        <mxCell id="Hxw2iCBCijCNCAAfh-6b-86" value="ID" style="ellipse;whiteSpace=wrap;html=1;align=center;fontStyle=4" parent="1" vertex="1">
          <mxGeometry x="83" y="50" width="40" height="40" as="geometry" />
        </mxCell>
        <mxCell id="Hxw2iCBCijCNCAAfh-6b-88" value="Caminho" style="ellipse;whiteSpace=wrap;html=1;align=center;fontStyle=4" parent="1" vertex="1">
          <mxGeometry x="53" y="150" width="40" height="40" as="geometry" />
        </mxCell>
        <mxCell id="Hxw2iCBCijCNCAAfh-6b-89" value="Data de Envio" style="ellipse;whiteSpace=wrap;html=1;align=center;" parent="1" vertex="1">
          <mxGeometry x="114" y="150" width="40" height="40" as="geometry" />
        </mxCell>
        <mxCell id="Hxw2iCBCijCNCAAfh-6b-99" style="edgeStyle=orthogonalEdgeStyle;rounded=0;orthogonalLoop=1;jettySize=auto;html=1;entryX=0.5;entryY=0;entryDx=0;entryDy=0;endArrow=none;startFill=0;shape=link;" parent="1" source="Hxw2iCBCijCNCAAfh-6b-98" target="Hxw2iCBCijCNCAAfh-6b-46" edge="1">
          <mxGeometry relative="1" as="geometry" />
        </mxCell>
        <mxCell id="VWEWTh3ar_pNMmPOI8s5-105" value="1" style="edgeLabel;html=1;align=center;verticalAlign=middle;resizable=0;points=[];" parent="Hxw2iCBCijCNCAAfh-6b-99" vertex="1" connectable="0">
          <mxGeometry x="-0.0867" relative="1" as="geometry">
            <mxPoint as="offset" />
          </mxGeometry>
        </mxCell>
        <mxCell id="Hxw2iCBCijCNCAAfh-6b-100" style="edgeStyle=orthogonalEdgeStyle;rounded=0;orthogonalLoop=1;jettySize=auto;html=1;entryX=0.5;entryY=1;entryDx=0;entryDy=0;endArrow=none;startFill=0;shape=link;" parent="1" source="Hxw2iCBCijCNCAAfh-6b-98" target="Hxw2iCBCijCNCAAfh-6b-85" edge="1">
          <mxGeometry relative="1" as="geometry" />
        </mxCell>
        <mxCell id="VWEWTh3ar_pNMmPOI8s5-104" value="N" style="edgeLabel;html=1;align=center;verticalAlign=middle;resizable=0;points=[];" parent="Hxw2iCBCijCNCAAfh-6b-100" vertex="1" connectable="0">
          <mxGeometry x="-0.3822" relative="1" as="geometry">
            <mxPoint as="offset" />
          </mxGeometry>
        </mxCell>
        <mxCell id="Hxw2iCBCijCNCAAfh-6b-98" value="R13" style="shape=rhombus;perimeter=rhombusPerimeter;whiteSpace=wrap;html=1;align=center;" parent="1" vertex="1">
          <mxGeometry x="245" y="234" width="50" height="46" as="geometry" />
        </mxCell>
        <mxCell id="Hxw2iCBCijCNCAAfh-6b-104" style="edgeStyle=orthogonalEdgeStyle;rounded=0;orthogonalLoop=1;jettySize=auto;html=1;entryX=0.5;entryY=1;entryDx=0;entryDy=0;endArrow=none;startFill=0;shape=link;" parent="1" source="Hxw2iCBCijCNCAAfh-6b-101" target="vP99XLo5LnAxGZVNsOc5-32" edge="1">
          <mxGeometry relative="1" as="geometry" />
        </mxCell>
        <mxCell id="VWEWTh3ar_pNMmPOI8s5-97" value="1" style="edgeLabel;html=1;align=center;verticalAlign=middle;resizable=0;points=[];" parent="Hxw2iCBCijCNCAAfh-6b-104" vertex="1" connectable="0">
          <mxGeometry x="0.6479" relative="1" as="geometry">
            <mxPoint as="offset" />
          </mxGeometry>
        </mxCell>
        <mxCell id="Hxw2iCBCijCNCAAfh-6b-106" style="edgeStyle=orthogonalEdgeStyle;rounded=0;orthogonalLoop=1;jettySize=auto;html=1;entryX=0.5;entryY=0;entryDx=0;entryDy=0;endArrow=none;startFill=0;" parent="1" source="Hxw2iCBCijCNCAAfh-6b-101" target="vP99XLo5LnAxGZVNsOc5-43" edge="1">
          <mxGeometry relative="1" as="geometry" />
        </mxCell>
        <mxCell id="VWEWTh3ar_pNMmPOI8s5-89" value="N" style="edgeLabel;html=1;align=center;verticalAlign=middle;resizable=0;points=[];" parent="Hxw2iCBCijCNCAAfh-6b-106" vertex="1" connectable="0">
          <mxGeometry x="0.5893" relative="1" as="geometry">
            <mxPoint as="offset" />
          </mxGeometry>
        </mxCell>
        <mxCell id="Hxw2iCBCijCNCAAfh-6b-101" value="R10" style="shape=rhombus;perimeter=rhombusPerimeter;whiteSpace=wrap;html=1;align=center;" parent="1" vertex="1">
          <mxGeometry x="465" y="580" width="50" height="46" as="geometry" />
        </mxCell>
        <mxCell id="VWEWTh3ar_pNMmPOI8s5-26" style="edgeStyle=orthogonalEdgeStyle;rounded=0;orthogonalLoop=1;jettySize=auto;html=1;entryX=1;entryY=0.5;entryDx=0;entryDy=0;endArrow=none;startFill=0;" parent="1" source="Hxw2iCBCijCNCAAfh-6b-107" target="Hxw2iCBCijCNCAAfh-6b-111" edge="1">
          <mxGeometry relative="1" as="geometry" />
        </mxCell>
        <mxCell id="Hxw2iCBCijCNCAAfh-6b-107" value="CFT" style="ellipse;whiteSpace=wrap;html=1;align=center;fontStyle=4" parent="1" vertex="1">
          <mxGeometry x="1444" y="287" width="40" height="40" as="geometry" />
        </mxCell>
        <mxCell id="Hxw2iCBCijCNCAAfh-6b-108" style="edgeStyle=orthogonalEdgeStyle;rounded=0;orthogonalLoop=1;jettySize=auto;html=1;entryX=0;entryY=0.5;entryDx=0;entryDy=0;endArrow=none;startFill=0;" parent="1" source="Hxw2iCBCijCNCAAfh-6b-110" target="Hxw2iCBCijCNCAAfh-6b-112" edge="1">
          <mxGeometry relative="1" as="geometry" />
        </mxCell>
        <mxCell id="Hxw2iCBCijCNCAAfh-6b-109" style="edgeStyle=orthogonalEdgeStyle;rounded=0;orthogonalLoop=1;jettySize=auto;html=1;entryX=0;entryY=0.5;entryDx=0;entryDy=0;endArrow=none;startFill=0;" parent="1" source="Hxw2iCBCijCNCAAfh-6b-110" target="Hxw2iCBCijCNCAAfh-6b-111" edge="1">
          <mxGeometry relative="1" as="geometry" />
        </mxCell>
        <mxCell id="Hxw2iCBCijCNCAAfh-6b-115" style="edgeStyle=orthogonalEdgeStyle;rounded=0;orthogonalLoop=1;jettySize=auto;html=1;entryX=1;entryY=0.5;entryDx=0;entryDy=0;endArrow=none;startFill=0;" parent="1" source="Hxw2iCBCijCNCAAfh-6b-110" target="vP99XLo5LnAxGZVNsOc5-2" edge="1">
          <mxGeometry relative="1" as="geometry" />
        </mxCell>
        <mxCell id="Hxw2iCBCijCNCAAfh-6b-110" value="" style="triangle;whiteSpace=wrap;html=1;" parent="1" vertex="1">
          <mxGeometry x="1294" y="330" width="40" height="40" as="geometry" />
        </mxCell>
        <mxCell id="Hxw2iCBCijCNCAAfh-6b-111" value="Técnico" style="whiteSpace=wrap;html=1;align=center;" parent="1" vertex="1">
          <mxGeometry x="1334" y="287" width="100" height="40" as="geometry" />
        </mxCell>
        <mxCell id="Hxw2iCBCijCNCAAfh-6b-112" value="Engenheiro" style="whiteSpace=wrap;html=1;align=center;" parent="1" vertex="1">
          <mxGeometry x="1334" y="370" width="100" height="40" as="geometry" />
        </mxCell>
        <mxCell id="Hxw2iCBCijCNCAAfh-6b-113" value="CREA" style="ellipse;whiteSpace=wrap;html=1;align=center;fontStyle=4" parent="1" vertex="1">
          <mxGeometry x="1444" y="370" width="40" height="40" as="geometry" />
        </mxCell>
        <mxCell id="Hxw2iCBCijCNCAAfh-6b-134" value="Tipo de Equipamento" style="whiteSpace=wrap;html=1;align=center;" parent="1" vertex="1">
          <mxGeometry x="660" y="650" width="100" height="40" as="geometry" />
        </mxCell>
        <mxCell id="Hxw2iCBCijCNCAAfh-6b-136" style="edgeStyle=orthogonalEdgeStyle;rounded=0;orthogonalLoop=1;jettySize=auto;html=1;entryX=0;entryY=0.5;entryDx=0;entryDy=0;endArrow=none;startFill=0;shape=link;" parent="1" source="Hxw2iCBCijCNCAAfh-6b-135" target="Hxw2iCBCijCNCAAfh-6b-134" edge="1">
          <mxGeometry relative="1" as="geometry" />
        </mxCell>
        <mxCell id="VWEWTh3ar_pNMmPOI8s5-90" value="1" style="edgeLabel;html=1;align=center;verticalAlign=middle;resizable=0;points=[];" parent="Hxw2iCBCijCNCAAfh-6b-136" vertex="1" connectable="0">
          <mxGeometry x="0.1901" y="1" relative="1" as="geometry">
            <mxPoint as="offset" />
          </mxGeometry>
        </mxCell>
        <mxCell id="Hxw2iCBCijCNCAAfh-6b-137" style="edgeStyle=orthogonalEdgeStyle;rounded=0;orthogonalLoop=1;jettySize=auto;html=1;entryX=1;entryY=0.5;entryDx=0;entryDy=0;endArrow=none;startFill=0;shape=link;" parent="1" source="Hxw2iCBCijCNCAAfh-6b-135" target="vP99XLo5LnAxGZVNsOc5-43" edge="1">
          <mxGeometry relative="1" as="geometry" />
        </mxCell>
        <mxCell id="VWEWTh3ar_pNMmPOI8s5-92" value="N" style="edgeLabel;html=1;align=center;verticalAlign=middle;resizable=0;points=[];" parent="Hxw2iCBCijCNCAAfh-6b-137" vertex="1" connectable="0">
          <mxGeometry x="-0.2" y="-1" relative="1" as="geometry">
            <mxPoint as="offset" />
          </mxGeometry>
        </mxCell>
        <mxCell id="Hxw2iCBCijCNCAAfh-6b-135" value="R12" style="shape=rhombus;perimeter=rhombusPerimeter;whiteSpace=wrap;html=1;align=center;" parent="1" vertex="1">
          <mxGeometry x="575" y="647" width="50" height="46" as="geometry" />
        </mxCell>
        <mxCell id="Hxw2iCBCijCNCAAfh-6b-139" value="Nome" style="ellipse;whiteSpace=wrap;html=1;align=center;fontStyle=0" parent="1" vertex="1">
          <mxGeometry x="720" y="700" width="40" height="40" as="geometry" />
        </mxCell>
        <mxCell id="Hxw2iCBCijCNCAAfh-6b-140" value="Categoria" style="ellipse;whiteSpace=wrap;html=1;align=center;fontStyle=4" parent="1" vertex="1">
          <mxGeometry x="660" y="600" width="40" height="40" as="geometry" />
        </mxCell>
        <mxCell id="Hxw2iCBCijCNCAAfh-6b-141" value="Modelo" style="ellipse;whiteSpace=wrap;html=1;align=center;fontStyle=4" parent="1" vertex="1">
          <mxGeometry x="720" y="600" width="40" height="40" as="geometry" />
        </mxCell>
        <mxCell id="Hxw2iCBCijCNCAAfh-6b-142" value="Assinatura" style="ellipse;whiteSpace=wrap;html=1;align=center;fontStyle=4" parent="1" vertex="1">
          <mxGeometry x="220" y="10" width="40" height="40" as="geometry" />
        </mxCell>
        <mxCell id="Hxw2iCBCijCNCAAfh-6b-143" style="edgeStyle=orthogonalEdgeStyle;rounded=0;orthogonalLoop=1;jettySize=auto;html=1;entryX=0;entryY=0.5;entryDx=0;entryDy=0;endArrow=none;startFill=0;" parent="1" source="Hxw2iCBCijCNCAAfh-6b-145" target="Hxw2iCBCijCNCAAfh-6b-147" edge="1">
          <mxGeometry relative="1" as="geometry" />
        </mxCell>
        <mxCell id="Hxw2iCBCijCNCAAfh-6b-144" style="edgeStyle=orthogonalEdgeStyle;rounded=0;orthogonalLoop=1;jettySize=auto;html=1;entryX=0;entryY=0.5;entryDx=0;entryDy=0;endArrow=none;startFill=0;" parent="1" source="Hxw2iCBCijCNCAAfh-6b-145" target="Hxw2iCBCijCNCAAfh-6b-146" edge="1">
          <mxGeometry relative="1" as="geometry" />
        </mxCell>
        <mxCell id="Hxw2iCBCijCNCAAfh-6b-153" style="edgeStyle=orthogonalEdgeStyle;rounded=0;orthogonalLoop=1;jettySize=auto;html=1;entryX=1;entryY=0.5;entryDx=0;entryDy=0;endArrow=none;startFill=0;" parent="1" source="Hxw2iCBCijCNCAAfh-6b-145" target="Hxw2iCBCijCNCAAfh-6b-85" edge="1">
          <mxGeometry relative="1" as="geometry" />
        </mxCell>
        <mxCell id="VWEWTh3ar_pNMmPOI8s5-68" style="edgeStyle=orthogonalEdgeStyle;rounded=0;orthogonalLoop=1;jettySize=auto;html=1;entryX=0;entryY=0.5;entryDx=0;entryDy=0;endArrow=none;startFill=0;" parent="1" source="Hxw2iCBCijCNCAAfh-6b-145" target="VWEWTh3ar_pNMmPOI8s5-63" edge="1">
          <mxGeometry relative="1" as="geometry" />
        </mxCell>
        <mxCell id="Hxw2iCBCijCNCAAfh-6b-145" value="" style="triangle;whiteSpace=wrap;html=1;" parent="1" vertex="1">
          <mxGeometry x="180" y="100" width="40" height="40" as="geometry" />
        </mxCell>
        <mxCell id="Hxw2iCBCijCNCAAfh-6b-146" value="Laudo" style="whiteSpace=wrap;html=1;align=center;" parent="1" vertex="1">
          <mxGeometry x="220" y="60" width="100" height="40" as="geometry" />
        </mxCell>
        <mxCell id="Hxw2iCBCijCNCAAfh-6b-147" value="ART" style="whiteSpace=wrap;html=1;align=center;" parent="1" vertex="1">
          <mxGeometry x="220" y="140" width="100" height="40" as="geometry" />
        </mxCell>
        <mxCell id="Hxw2iCBCijCNCAAfh-6b-148" value="Número" style="ellipse;whiteSpace=wrap;html=1;align=center;fontStyle=4" parent="1" vertex="1">
          <mxGeometry x="220" y="190" width="40" height="40" as="geometry" />
        </mxCell>
        <mxCell id="Hxw2iCBCijCNCAAfh-6b-149" value="Data de Aprovação" style="ellipse;whiteSpace=wrap;html=1;align=center;fontStyle=4" parent="1" vertex="1">
          <mxGeometry x="280" y="10" width="40" height="40" as="geometry" />
        </mxCell>
        <mxCell id="Hxw2iCBCijCNCAAfh-6b-150" value="Data de Registro" style="ellipse;whiteSpace=wrap;html=1;align=center;fontStyle=4" parent="1" vertex="1">
          <mxGeometry x="280" y="190" width="40" height="40" as="geometry" />
        </mxCell>
        <mxCell id="VWEWTh3ar_pNMmPOI8s5-3" value="" style="endArrow=none;html=1;rounded=0;exitX=0.5;exitY=1;exitDx=0;exitDy=0;entryX=0;entryY=0;entryDx=0;entryDy=0;" parent="1" source="vP99XLo5LnAxGZVNsOc5-5" target="vP99XLo5LnAxGZVNsOc5-1" edge="1">
          <mxGeometry relative="1" as="geometry">
            <mxPoint x="610" y="160" as="sourcePoint" />
            <mxPoint x="770" y="160" as="targetPoint" />
          </mxGeometry>
        </mxCell>
        <mxCell id="VWEWTh3ar_pNMmPOI8s5-4" value="" style="endArrow=none;html=1;rounded=0;exitX=0.5;exitY=1;exitDx=0;exitDy=0;entryX=1;entryY=0;entryDx=0;entryDy=0;" parent="1" source="vP99XLo5LnAxGZVNsOc5-8" target="vP99XLo5LnAxGZVNsOc5-1" edge="1">
          <mxGeometry relative="1" as="geometry">
            <mxPoint x="625" y="110" as="sourcePoint" />
            <mxPoint x="645" y="130" as="targetPoint" />
          </mxGeometry>
        </mxCell>
        <mxCell id="VWEWTh3ar_pNMmPOI8s5-5" value="" style="endArrow=none;html=1;rounded=0;exitX=0.5;exitY=1;exitDx=0;exitDy=0;entryX=0.5;entryY=0;entryDx=0;entryDy=0;" parent="1" source="vP99XLo5LnAxGZVNsOc5-6" target="vP99XLo5LnAxGZVNsOc5-1" edge="1">
          <mxGeometry relative="1" as="geometry">
            <mxPoint x="635" y="120" as="sourcePoint" />
            <mxPoint x="655" y="140" as="targetPoint" />
          </mxGeometry>
        </mxCell>
        <mxCell id="VWEWTh3ar_pNMmPOI8s5-6" value="" style="endArrow=none;html=1;rounded=0;exitX=0.25;exitY=1;exitDx=0;exitDy=0;entryX=0.5;entryY=0;entryDx=0;entryDy=0;" parent="1" source="vP99XLo5LnAxGZVNsOc5-1" target="vP99XLo5LnAxGZVNsOc5-9" edge="1">
          <mxGeometry relative="1" as="geometry">
            <mxPoint x="645" y="130" as="sourcePoint" />
            <mxPoint x="665" y="150" as="targetPoint" />
          </mxGeometry>
        </mxCell>
        <mxCell id="VWEWTh3ar_pNMmPOI8s5-7" value="" style="endArrow=none;html=1;rounded=0;exitX=0.75;exitY=1;exitDx=0;exitDy=0;entryX=0.5;entryY=0;entryDx=0;entryDy=0;" parent="1" source="vP99XLo5LnAxGZVNsOc5-1" target="vP99XLo5LnAxGZVNsOc5-10" edge="1">
          <mxGeometry relative="1" as="geometry">
            <mxPoint x="670" y="170" as="sourcePoint" />
            <mxPoint x="665" y="180" as="targetPoint" />
          </mxGeometry>
        </mxCell>
        <mxCell id="VWEWTh3ar_pNMmPOI8s5-8" value="" style="endArrow=none;html=1;rounded=0;exitX=0.5;exitY=1;exitDx=0;exitDy=0;entryX=0.25;entryY=0;entryDx=0;entryDy=0;" parent="1" source="vP99XLo5LnAxGZVNsOc5-11" target="vP99XLo5LnAxGZVNsOc5-3" edge="1">
          <mxGeometry relative="1" as="geometry">
            <mxPoint x="430" y="330" as="sourcePoint" />
            <mxPoint x="590" y="330" as="targetPoint" />
          </mxGeometry>
        </mxCell>
        <mxCell id="VWEWTh3ar_pNMmPOI8s5-9" value="" style="endArrow=none;html=1;rounded=0;exitX=0.5;exitY=1;exitDx=0;exitDy=0;entryX=0.75;entryY=0;entryDx=0;entryDy=0;" parent="1" source="vP99XLo5LnAxGZVNsOc5-13" target="vP99XLo5LnAxGZVNsOc5-3" edge="1">
          <mxGeometry relative="1" as="geometry">
            <mxPoint x="490" y="330" as="sourcePoint" />
            <mxPoint x="498" y="340" as="targetPoint" />
          </mxGeometry>
        </mxCell>
        <mxCell id="VWEWTh3ar_pNMmPOI8s5-10" value="" style="endArrow=none;html=1;rounded=0;exitX=0.25;exitY=1;exitDx=0;exitDy=0;entryX=0.5;entryY=0;entryDx=0;entryDy=0;" parent="1" source="vP99XLo5LnAxGZVNsOc5-3" target="Hxw2iCBCijCNCAAfh-6b-51" edge="1">
          <mxGeometry relative="1" as="geometry">
            <mxPoint x="554" y="330" as="sourcePoint" />
            <mxPoint x="548" y="340" as="targetPoint" />
          </mxGeometry>
        </mxCell>
        <mxCell id="VWEWTh3ar_pNMmPOI8s5-11" value="" style="endArrow=none;html=1;rounded=0;exitX=0.75;exitY=1;exitDx=0;exitDy=0;entryX=0.5;entryY=0;entryDx=0;entryDy=0;" parent="1" source="vP99XLo5LnAxGZVNsOc5-3" target="vP99XLo5LnAxGZVNsOc5-41" edge="1">
          <mxGeometry relative="1" as="geometry">
            <mxPoint x="498" y="380" as="sourcePoint" />
            <mxPoint x="490" y="390" as="targetPoint" />
          </mxGeometry>
        </mxCell>
        <mxCell id="VWEWTh3ar_pNMmPOI8s5-12" value="" style="endArrow=none;html=1;rounded=0;exitX=0.5;exitY=1;exitDx=0;exitDy=0;entryX=0.25;entryY=0;entryDx=0;entryDy=0;" parent="1" source="vP99XLo5LnAxGZVNsOc5-25" target="vP99XLo5LnAxGZVNsOc5-4" edge="1">
          <mxGeometry relative="1" as="geometry">
            <mxPoint x="710" y="330" as="sourcePoint" />
            <mxPoint x="870" y="330" as="targetPoint" />
          </mxGeometry>
        </mxCell>
        <mxCell id="VWEWTh3ar_pNMmPOI8s5-13" value="" style="endArrow=none;html=1;rounded=0;exitX=0.5;exitY=1;exitDx=0;exitDy=0;entryX=0.75;entryY=0;entryDx=0;entryDy=0;" parent="1" source="vP99XLo5LnAxGZVNsOc5-29" target="vP99XLo5LnAxGZVNsOc5-4" edge="1">
          <mxGeometry relative="1" as="geometry">
            <mxPoint x="790" y="330" as="sourcePoint" />
            <mxPoint x="795" y="340" as="targetPoint" />
          </mxGeometry>
        </mxCell>
        <mxCell id="VWEWTh3ar_pNMmPOI8s5-14" value="" style="endArrow=none;html=1;rounded=0;exitX=0.25;exitY=1;exitDx=0;exitDy=0;entryX=0.5;entryY=0;entryDx=0;entryDy=0;" parent="1" source="vP99XLo5LnAxGZVNsOc5-4" target="vP99XLo5LnAxGZVNsOc5-30" edge="1">
          <mxGeometry relative="1" as="geometry">
            <mxPoint x="850" y="330" as="sourcePoint" />
            <mxPoint x="845" y="340" as="targetPoint" />
          </mxGeometry>
        </mxCell>
        <mxCell id="VWEWTh3ar_pNMmPOI8s5-15" value="" style="endArrow=none;html=1;rounded=0;exitX=0.75;exitY=1;exitDx=0;exitDy=0;entryX=0.5;entryY=0;entryDx=0;entryDy=0;" parent="1" source="vP99XLo5LnAxGZVNsOc5-4" target="Hxw2iCBCijCNCAAfh-6b-40" edge="1">
          <mxGeometry relative="1" as="geometry">
            <mxPoint x="795" y="380" as="sourcePoint" />
            <mxPoint x="790" y="390" as="targetPoint" />
          </mxGeometry>
        </mxCell>
        <mxCell id="VWEWTh3ar_pNMmPOI8s5-16" value="" style="endArrow=none;html=1;rounded=0;exitX=0.5;exitY=1;exitDx=0;exitDy=0;entryX=0.5;entryY=0;entryDx=0;entryDy=0;" parent="1" source="Hxw2iCBCijCNCAAfh-6b-45" target="Hxw2iCBCijCNCAAfh-6b-38" edge="1">
          <mxGeometry relative="1" as="geometry">
            <mxPoint x="900" y="300" as="sourcePoint" />
            <mxPoint x="1060" y="300" as="targetPoint" />
          </mxGeometry>
        </mxCell>
        <mxCell id="VWEWTh3ar_pNMmPOI8s5-17" value="" style="endArrow=none;html=1;rounded=0;exitX=1;exitY=0.5;exitDx=0;exitDy=0;entryX=0;entryY=0.5;entryDx=0;entryDy=0;" parent="1" source="Hxw2iCBCijCNCAAfh-6b-38" target="vP99XLo5LnAxGZVNsOc5-27" edge="1">
          <mxGeometry relative="1" as="geometry">
            <mxPoint x="980" y="290" as="sourcePoint" />
            <mxPoint x="980" y="297" as="targetPoint" />
          </mxGeometry>
        </mxCell>
        <mxCell id="VWEWTh3ar_pNMmPOI8s5-20" value="" style="endArrow=none;html=1;rounded=0;exitX=0.25;exitY=0;exitDx=0;exitDy=0;entryX=0.5;entryY=1;entryDx=0;entryDy=0;" parent="1" source="Hxw2iCBCijCNCAAfh-6b-2" target="Hxw2iCBCijCNCAAfh-6b-3" edge="1">
          <mxGeometry relative="1" as="geometry">
            <mxPoint x="880" y="450" as="sourcePoint" />
            <mxPoint x="1040" y="450" as="targetPoint" />
          </mxGeometry>
        </mxCell>
        <mxCell id="VWEWTh3ar_pNMmPOI8s5-21" value="" style="endArrow=none;html=1;rounded=0;exitX=0.75;exitY=0;exitDx=0;exitDy=0;entryX=0.5;entryY=1;entryDx=0;entryDy=0;" parent="1" source="Hxw2iCBCijCNCAAfh-6b-2" target="Hxw2iCBCijCNCAAfh-6b-5" edge="1">
          <mxGeometry relative="1" as="geometry">
            <mxPoint x="955" y="514" as="sourcePoint" />
            <mxPoint x="950" y="500" as="targetPoint" />
          </mxGeometry>
        </mxCell>
        <mxCell id="VWEWTh3ar_pNMmPOI8s5-22" value="" style="endArrow=none;html=1;rounded=0;exitX=0.5;exitY=1;exitDx=0;exitDy=0;entryX=0.25;entryY=0;entryDx=0;entryDy=0;" parent="1" source="vP99XLo5LnAxGZVNsOc5-20" target="vP99XLo5LnAxGZVNsOc5-2" edge="1">
          <mxGeometry relative="1" as="geometry">
            <mxPoint x="1110" y="330" as="sourcePoint" />
            <mxPoint x="1270" y="330" as="targetPoint" />
          </mxGeometry>
        </mxCell>
        <mxCell id="VWEWTh3ar_pNMmPOI8s5-23" value="" style="endArrow=none;html=1;rounded=0;entryX=0.75;entryY=0;entryDx=0;entryDy=0;exitX=0.5;exitY=1;exitDx=0;exitDy=0;" parent="1" source="vP99XLo5LnAxGZVNsOc5-17" target="vP99XLo5LnAxGZVNsOc5-2" edge="1">
          <mxGeometry relative="1" as="geometry">
            <mxPoint x="1250" y="320" as="sourcePoint" />
            <mxPoint x="1195" y="340" as="targetPoint" />
          </mxGeometry>
        </mxCell>
        <mxCell id="VWEWTh3ar_pNMmPOI8s5-24" value="" style="endArrow=none;html=1;rounded=0;entryX=0.5;entryY=0;entryDx=0;entryDy=0;exitX=0.25;exitY=1;exitDx=0;exitDy=0;" parent="1" source="vP99XLo5LnAxGZVNsOc5-2" target="Hxw2iCBCijCNCAAfh-6b-1" edge="1">
          <mxGeometry relative="1" as="geometry">
            <mxPoint x="1250" y="330" as="sourcePoint" />
            <mxPoint x="1245" y="340" as="targetPoint" />
          </mxGeometry>
        </mxCell>
        <mxCell id="VWEWTh3ar_pNMmPOI8s5-25" value="" style="endArrow=none;html=1;rounded=0;entryX=0.5;entryY=0;entryDx=0;entryDy=0;exitX=0.75;exitY=1;exitDx=0;exitDy=0;" parent="1" source="vP99XLo5LnAxGZVNsOc5-2" target="vP99XLo5LnAxGZVNsOc5-19" edge="1">
          <mxGeometry relative="1" as="geometry">
            <mxPoint x="1195" y="380" as="sourcePoint" />
            <mxPoint x="1190" y="390" as="targetPoint" />
          </mxGeometry>
        </mxCell>
        <mxCell id="VWEWTh3ar_pNMmPOI8s5-29" value="" style="endArrow=none;html=1;rounded=0;entryX=0;entryY=0.5;entryDx=0;entryDy=0;exitX=1;exitY=0.5;exitDx=0;exitDy=0;" parent="1" source="Hxw2iCBCijCNCAAfh-6b-112" target="Hxw2iCBCijCNCAAfh-6b-113" edge="1">
          <mxGeometry relative="1" as="geometry">
            <mxPoint x="1350" y="380" as="sourcePoint" />
            <mxPoint x="1510" y="380" as="targetPoint" />
          </mxGeometry>
        </mxCell>
        <mxCell id="VWEWTh3ar_pNMmPOI8s5-31" value="" style="endArrow=none;html=1;rounded=0;entryX=0.5;entryY=0;entryDx=0;entryDy=0;exitX=0.75;exitY=1;exitDx=0;exitDy=0;" parent="1" source="Hxw2iCBCijCNCAAfh-6b-134" target="Hxw2iCBCijCNCAAfh-6b-139" edge="1">
          <mxGeometry relative="1" as="geometry">
            <mxPoint x="630" y="660" as="sourcePoint" />
            <mxPoint x="790" y="660" as="targetPoint" />
          </mxGeometry>
        </mxCell>
        <mxCell id="VWEWTh3ar_pNMmPOI8s5-32" value="" style="endArrow=none;html=1;rounded=0;entryX=0.5;entryY=1;entryDx=0;entryDy=0;exitX=0.75;exitY=0;exitDx=0;exitDy=0;" parent="1" source="Hxw2iCBCijCNCAAfh-6b-134" target="Hxw2iCBCijCNCAAfh-6b-141" edge="1">
          <mxGeometry relative="1" as="geometry">
            <mxPoint x="745" y="700" as="sourcePoint" />
            <mxPoint x="750" y="710" as="targetPoint" />
          </mxGeometry>
        </mxCell>
        <mxCell id="VWEWTh3ar_pNMmPOI8s5-33" value="" style="endArrow=none;html=1;rounded=0;entryX=0.5;entryY=1;entryDx=0;entryDy=0;exitX=0.25;exitY=0;exitDx=0;exitDy=0;" parent="1" source="Hxw2iCBCijCNCAAfh-6b-134" target="Hxw2iCBCijCNCAAfh-6b-140" edge="1">
          <mxGeometry relative="1" as="geometry">
            <mxPoint x="745" y="660" as="sourcePoint" />
            <mxPoint x="750" y="650" as="targetPoint" />
          </mxGeometry>
        </mxCell>
        <mxCell id="VWEWTh3ar_pNMmPOI8s5-35" value="" style="endArrow=none;html=1;rounded=0;entryX=0.5;entryY=0;entryDx=0;entryDy=0;exitX=0.25;exitY=1;exitDx=0;exitDy=0;" parent="1" source="vP99XLo5LnAxGZVNsOc5-43" target="vP99XLo5LnAxGZVNsOc5-44" edge="1">
          <mxGeometry relative="1" as="geometry">
            <mxPoint x="410" y="700" as="sourcePoint" />
            <mxPoint x="570" y="700" as="targetPoint" />
          </mxGeometry>
        </mxCell>
        <mxCell id="VWEWTh3ar_pNMmPOI8s5-36" value="" style="endArrow=none;html=1;rounded=0;entryX=0.5;entryY=1;entryDx=0;entryDy=0;exitX=0.25;exitY=0;exitDx=0;exitDy=0;" parent="1" source="vP99XLo5LnAxGZVNsOc5-45" target="Hxw2iCBCijCNCAAfh-6b-79" edge="1">
          <mxGeometry relative="1" as="geometry">
            <mxPoint x="250" y="680" as="sourcePoint" />
            <mxPoint x="410" y="680" as="targetPoint" />
          </mxGeometry>
        </mxCell>
        <mxCell id="VWEWTh3ar_pNMmPOI8s5-37" value="" style="endArrow=none;html=1;rounded=0;entryX=0.5;entryY=1;entryDx=0;entryDy=0;exitX=0.75;exitY=0;exitDx=0;exitDy=0;" parent="1" source="vP99XLo5LnAxGZVNsOc5-45" target="Hxw2iCBCijCNCAAfh-6b-81" edge="1">
          <mxGeometry relative="1" as="geometry">
            <mxPoint x="280" y="660" as="sourcePoint" />
            <mxPoint x="275" y="650" as="targetPoint" />
          </mxGeometry>
        </mxCell>
        <mxCell id="VWEWTh3ar_pNMmPOI8s5-38" value="" style="endArrow=none;html=1;rounded=0;entryX=0.5;entryY=0;entryDx=0;entryDy=0;exitX=0.25;exitY=1;exitDx=0;exitDy=0;" parent="1" source="Hxw2iCBCijCNCAAfh-6b-46" target="Hxw2iCBCijCNCAAfh-6b-49" edge="1">
          <mxGeometry relative="1" as="geometry">
            <mxPoint x="240" y="400" as="sourcePoint" />
            <mxPoint x="400" y="400" as="targetPoint" />
          </mxGeometry>
        </mxCell>
        <mxCell id="VWEWTh3ar_pNMmPOI8s5-39" value="" style="endArrow=none;html=1;rounded=0;entryX=0.5;entryY=0;entryDx=0;entryDy=0;exitX=0.75;exitY=1;exitDx=0;exitDy=0;" parent="1" source="Hxw2iCBCijCNCAAfh-6b-46" target="Hxw2iCBCijCNCAAfh-6b-50" edge="1">
          <mxGeometry relative="1" as="geometry">
            <mxPoint x="255" y="380" as="sourcePoint" />
            <mxPoint x="250" y="390" as="targetPoint" />
          </mxGeometry>
        </mxCell>
        <mxCell id="VWEWTh3ar_pNMmPOI8s5-40" value="" style="endArrow=none;html=1;rounded=0;entryX=0.75;entryY=0;entryDx=0;entryDy=0;exitX=0.5;exitY=1;exitDx=0;exitDy=0;" parent="1" source="Hxw2iCBCijCNCAAfh-6b-48" target="Hxw2iCBCijCNCAAfh-6b-46" edge="1">
          <mxGeometry relative="1" as="geometry">
            <mxPoint x="305" y="380" as="sourcePoint" />
            <mxPoint x="311" y="390" as="targetPoint" />
          </mxGeometry>
        </mxCell>
        <mxCell id="VWEWTh3ar_pNMmPOI8s5-41" value="" style="endArrow=none;html=1;rounded=0;entryX=0.25;entryY=0;entryDx=0;entryDy=0;exitX=0.5;exitY=1;exitDx=0;exitDy=0;" parent="1" source="Hxw2iCBCijCNCAAfh-6b-47" target="Hxw2iCBCijCNCAAfh-6b-46" edge="1">
          <mxGeometry relative="1" as="geometry">
            <mxPoint x="311" y="330" as="sourcePoint" />
            <mxPoint x="305" y="340" as="targetPoint" />
          </mxGeometry>
        </mxCell>
        <mxCell id="VWEWTh3ar_pNMmPOI8s5-42" value="" style="endArrow=none;html=1;rounded=0;entryX=0;entryY=0;entryDx=0;entryDy=0;exitX=0.5;exitY=1;exitDx=0;exitDy=0;" parent="1" source="Hxw2iCBCijCNCAAfh-6b-55" target="Hxw2iCBCijCNCAAfh-6b-46" edge="1">
          <mxGeometry relative="1" as="geometry">
            <mxPoint x="247" y="330" as="sourcePoint" />
            <mxPoint x="255" y="340" as="targetPoint" />
          </mxGeometry>
        </mxCell>
        <mxCell id="VWEWTh3ar_pNMmPOI8s5-43" value="" style="endArrow=none;html=1;rounded=0;entryX=0;entryY=1;entryDx=0;entryDy=0;exitX=0.5;exitY=0;exitDx=0;exitDy=0;" parent="1" source="Hxw2iCBCijCNCAAfh-6b-56" target="Hxw2iCBCijCNCAAfh-6b-46" edge="1">
          <mxGeometry relative="1" as="geometry">
            <mxPoint x="190" y="330" as="sourcePoint" />
            <mxPoint x="230" y="340" as="targetPoint" />
          </mxGeometry>
        </mxCell>
        <mxCell id="VWEWTh3ar_pNMmPOI8s5-44" value="" style="endArrow=none;html=1;rounded=0;exitX=0.5;exitY=0;exitDx=0;exitDy=0;entryX=0.25;entryY=1;entryDx=0;entryDy=0;" parent="1" source="Hxw2iCBCijCNCAAfh-6b-148" target="Hxw2iCBCijCNCAAfh-6b-147" edge="1">
          <mxGeometry relative="1" as="geometry">
            <mxPoint x="210" y="210" as="sourcePoint" />
            <mxPoint x="370" y="210" as="targetPoint" />
          </mxGeometry>
        </mxCell>
        <mxCell id="VWEWTh3ar_pNMmPOI8s5-45" value="" style="endArrow=none;html=1;rounded=0;exitX=0.5;exitY=0;exitDx=0;exitDy=0;entryX=0.75;entryY=1;entryDx=0;entryDy=0;" parent="1" source="Hxw2iCBCijCNCAAfh-6b-150" target="Hxw2iCBCijCNCAAfh-6b-147" edge="1">
          <mxGeometry relative="1" as="geometry">
            <mxPoint x="250" y="200" as="sourcePoint" />
            <mxPoint x="255" y="190" as="targetPoint" />
          </mxGeometry>
        </mxCell>
        <mxCell id="VWEWTh3ar_pNMmPOI8s5-46" value="" style="endArrow=none;html=1;rounded=0;exitX=0.5;exitY=1;exitDx=0;exitDy=0;entryX=0.25;entryY=0;entryDx=0;entryDy=0;" parent="1" source="Hxw2iCBCijCNCAAfh-6b-142" target="Hxw2iCBCijCNCAAfh-6b-146" edge="1">
          <mxGeometry relative="1" as="geometry">
            <mxPoint x="210" y="70" as="sourcePoint" />
            <mxPoint x="370" y="70" as="targetPoint" />
          </mxGeometry>
        </mxCell>
        <mxCell id="VWEWTh3ar_pNMmPOI8s5-47" value="" style="endArrow=none;html=1;rounded=0;exitX=0.5;exitY=1;exitDx=0;exitDy=0;entryX=0.75;entryY=0;entryDx=0;entryDy=0;" parent="1" source="Hxw2iCBCijCNCAAfh-6b-149" target="Hxw2iCBCijCNCAAfh-6b-146" edge="1">
          <mxGeometry relative="1" as="geometry">
            <mxPoint x="250" y="60" as="sourcePoint" />
            <mxPoint x="255" y="70" as="targetPoint" />
          </mxGeometry>
        </mxCell>
        <mxCell id="VWEWTh3ar_pNMmPOI8s5-48" value="" style="endArrow=none;html=1;rounded=0;entryX=0.5;entryY=0;entryDx=0;entryDy=0;exitX=0.75;exitY=1;exitDx=0;exitDy=0;" parent="1" source="Hxw2iCBCijCNCAAfh-6b-85" target="Hxw2iCBCijCNCAAfh-6b-89" edge="1">
          <mxGeometry relative="1" as="geometry">
            <mxPoint x="80" y="140" as="sourcePoint" />
            <mxPoint x="240" y="140" as="targetPoint" />
          </mxGeometry>
        </mxCell>
        <mxCell id="VWEWTh3ar_pNMmPOI8s5-49" value="" style="endArrow=none;html=1;rounded=0;entryX=0.5;entryY=0;entryDx=0;entryDy=0;exitX=0.25;exitY=1;exitDx=0;exitDy=0;" parent="1" source="Hxw2iCBCijCNCAAfh-6b-85" target="Hxw2iCBCijCNCAAfh-6b-88" edge="1">
          <mxGeometry relative="1" as="geometry">
            <mxPoint x="138" y="150" as="sourcePoint" />
            <mxPoint x="144" y="160" as="targetPoint" />
          </mxGeometry>
        </mxCell>
        <mxCell id="VWEWTh3ar_pNMmPOI8s5-52" value="" style="endArrow=none;html=1;rounded=0;entryX=0.5;entryY=1;entryDx=0;entryDy=0;exitX=0.5;exitY=0;exitDx=0;exitDy=0;" parent="1" source="Hxw2iCBCijCNCAAfh-6b-85" target="Hxw2iCBCijCNCAAfh-6b-86" edge="1">
          <mxGeometry relative="1" as="geometry">
            <mxPoint x="138" y="110" as="sourcePoint" />
            <mxPoint x="144" y="100" as="targetPoint" />
          </mxGeometry>
        </mxCell>
        <mxCell id="VWEWTh3ar_pNMmPOI8s5-54" value="" style="endArrow=none;html=1;rounded=0;entryX=0.25;entryY=0;entryDx=0;entryDy=0;exitX=0.5;exitY=1;exitDx=0;exitDy=0;" parent="1" source="Hxw2iCBCijCNCAAfh-6b-64" target="vP99XLo5LnAxGZVNsOc5-32" edge="1">
          <mxGeometry relative="1" as="geometry">
            <mxPoint x="430" y="510" as="sourcePoint" />
            <mxPoint x="590" y="510" as="targetPoint" />
          </mxGeometry>
        </mxCell>
        <mxCell id="VWEWTh3ar_pNMmPOI8s5-62" value="Tipo" style="ellipse;whiteSpace=wrap;html=1;align=center;fontStyle=4" parent="1" vertex="1">
          <mxGeometry x="370" y="50" width="40" height="40" as="geometry" />
        </mxCell>
        <mxCell id="VWEWTh3ar_pNMmPOI8s5-63" value="Arquivo Geoespacial" style="whiteSpace=wrap;html=1;align=center;" parent="1" vertex="1">
          <mxGeometry x="340" y="100" width="100" height="40" as="geometry" />
        </mxCell>
        <mxCell id="VWEWTh3ar_pNMmPOI8s5-64" value="Extensão" style="ellipse;whiteSpace=wrap;html=1;align=center;fontStyle=4" parent="1" vertex="1">
          <mxGeometry x="370" y="150" width="40" height="40" as="geometry" />
        </mxCell>
        <mxCell id="VWEWTh3ar_pNMmPOI8s5-65" value="" style="endArrow=none;html=1;rounded=0;exitX=0.5;exitY=1;exitDx=0;exitDy=0;entryX=0.5;entryY=0;entryDx=0;entryDy=0;" parent="1" source="VWEWTh3ar_pNMmPOI8s5-62" target="VWEWTh3ar_pNMmPOI8s5-63" edge="1">
          <mxGeometry relative="1" as="geometry">
            <mxPoint x="350" y="110" as="sourcePoint" />
            <mxPoint x="510" y="110" as="targetPoint" />
          </mxGeometry>
        </mxCell>
        <mxCell id="VWEWTh3ar_pNMmPOI8s5-66" value="" style="endArrow=none;html=1;rounded=0;entryX=0.5;entryY=1;entryDx=0;entryDy=0;exitX=0.5;exitY=0;exitDx=0;exitDy=0;" parent="1" source="VWEWTh3ar_pNMmPOI8s5-64" target="VWEWTh3ar_pNMmPOI8s5-63" edge="1">
          <mxGeometry relative="1" as="geometry">
            <mxPoint x="440" y="150" as="sourcePoint" />
            <mxPoint x="395" y="110" as="targetPoint" />
          </mxGeometry>
        </mxCell>
        <mxCell id="VWEWTh3ar_pNMmPOI8s5-79" value="Email" style="ellipse;whiteSpace=wrap;html=1;align=center;" parent="1" vertex="1">
          <mxGeometry x="705" y="380" width="40" height="40" as="geometry" />
        </mxCell>
        <mxCell id="VWEWTh3ar_pNMmPOI8s5-80" value="" style="endArrow=none;html=1;rounded=0;entryX=0.5;entryY=0;entryDx=0;entryDy=0;exitX=0;exitY=1;exitDx=0;exitDy=0;" parent="1" source="vP99XLo5LnAxGZVNsOc5-4" target="VWEWTh3ar_pNMmPOI8s5-79" edge="1">
          <mxGeometry relative="1" as="geometry">
            <mxPoint x="720" y="360" as="sourcePoint" />
            <mxPoint x="880" y="360" as="targetPoint" />
          </mxGeometry>
        </mxCell>
        <mxCell id="T5wcAPjPAa4D8RURB-ct-5" value="Valor" style="ellipse;whiteSpace=wrap;html=1;align=center;fontStyle=4" vertex="1" parent="1">
          <mxGeometry x="575" y="280" width="40" height="40" as="geometry" />
        </mxCell>
        <mxCell id="T5wcAPjPAa4D8RURB-ct-6" value="" style="endArrow=none;html=1;rounded=0;exitX=0.5;exitY=1;exitDx=0;exitDy=0;entryX=1;entryY=0;entryDx=0;entryDy=0;" edge="1" parent="1" source="T5wcAPjPAa4D8RURB-ct-5" target="vP99XLo5LnAxGZVNsOc5-3">
          <mxGeometry relative="1" as="geometry">
            <mxPoint x="554" y="330" as="sourcePoint" />
            <mxPoint x="548" y="340" as="targetPoint" />
          </mxGeometry>
        </mxCell>
        <mxCell id="T5wcAPjPAa4D8RURB-ct-7" value="Precisão" style="ellipse;whiteSpace=wrap;html=1;align=center;fontStyle=4" vertex="1" parent="1">
          <mxGeometry x="660" y="700" width="40" height="40" as="geometry" />
        </mxCell>
        <mxCell id="T5wcAPjPAa4D8RURB-ct-8" value="" style="endArrow=none;html=1;rounded=0;entryX=0.5;entryY=0;entryDx=0;entryDy=0;exitX=0.25;exitY=1;exitDx=0;exitDy=0;" edge="1" parent="1" source="Hxw2iCBCijCNCAAfh-6b-134" target="T5wcAPjPAa4D8RURB-ct-7">
          <mxGeometry relative="1" as="geometry">
            <mxPoint x="745" y="700" as="sourcePoint" />
            <mxPoint x="750" y="710" as="targetPoint" />
          </mxGeometry>
        </mxCell>
        <mxCell id="T5wcAPjPAa4D8RURB-ct-9" value="Responsável" style="ellipse;whiteSpace=wrap;html=1;align=center;fontStyle=4" vertex="1" parent="1">
          <mxGeometry x="290" y="700" width="40" height="40" as="geometry" />
        </mxCell>
        <mxCell id="T5wcAPjPAa4D8RURB-ct-10" value="" style="endArrow=none;html=1;rounded=0;entryX=0.5;entryY=0;entryDx=0;entryDy=0;exitX=0.75;exitY=1;exitDx=0;exitDy=0;" edge="1" parent="1" source="vP99XLo5LnAxGZVNsOc5-45" target="T5wcAPjPAa4D8RURB-ct-9">
          <mxGeometry relative="1" as="geometry">
            <mxPoint x="315" y="660" as="sourcePoint" />
            <mxPoint x="325" y="650" as="targetPoint" />
          </mxGeometry>
        </mxCell>
      </root>
    </mxGraphModel>
  </diagram>
</mxfile>
